/* XPM */
static const char * sheep_xpm[] = {
"32 32 205 2",
"  	c None",
". 	c #000000",
"+ 	c #161616",
"@ 	c #616161",
"# 	c #5E5E5E",
"$ 	c #A9A9A9",
"% 	c #0B0B0B",
"& 	c #060606",
"* 	c #1A1A1A",
"= 	c #F1F1F1",
"- 	c #E3E3E3",
"; 	c #0E0E0E",
"> 	c #B5B5B5",
", 	c #FFFFFF",
"' 	c #E4E4E4",
") 	c #B2B2B2",
"! 	c #6C6C6C",
"~ 	c #DFDFDF",
"{ 	c #999999",
"] 	c #EFEFEF",
"^ 	c #FEFEFE",
"/ 	c #FDFDFD",
"( 	c #D2D2D2",
"_ 	c #1D1D1D",
": 	c #2F2F2F",
"< 	c #444444",
"[ 	c #FCFCFC",
"} 	c #FBFBFB",
"| 	c #848484",
"1 	c #A0A0A0",
"2 	c #252525",
"3 	c #CFD0D1",
"4 	c #111111",
"5 	c #050505",
"6 	c #4A4B4C",
"7 	c #FDFFFF",
"8 	c #E8EBED",
"9 	c #CDD0D2",
"0 	c #281A10",
"a 	c #373330",
"b 	c #3D342E",
"c 	c #474A4B",
"d 	c #C2C2C2",
"e 	c #404040",
"f 	c #DBDBDB",
"g 	c #2F2723",
"h 	c #6E5849",
"i 	c #553F30",
"j 	c #45484A",
"k 	c #B2B5B7",
"l 	c #74777A",
"m 	c #42342B",
"n 	c #FFD8B4",
"o 	c #FFE1BC",
"p 	c #FFE3BD",
"q 	c #A5836B",
"r 	c #2B2E2F",
"s 	c #383635",
"t 	c #292725",
"u 	c #464747",
"v 	c #D9D9D9",
"w 	c #434343",
"x 	c #B7B7B7",
"y 	c #A0A5A8",
"z 	c #AE886E",
"A 	c #FFD4B0",
"B 	c #FFD6B2",
"C 	c #F1C1A0",
"D 	c #AB856C",
"E 	c #D2A789",
"F 	c #FFD9B5",
"G 	c #FDCBA9",
"H 	c #FFCCAA",
"I 	c #FFCEAC",
"J 	c #B89075",
"K 	c #ACB1B4",
"L 	c #D7D7D7",
"M 	c #070707",
"N 	c #ECECEC",
"O 	c #343433",
"P 	c #FFCFAD",
"Q 	c #FDCAA9",
"R 	c #FECBA9",
"S 	c #FFCFAC",
"T 	c #FFD1AE",
"U 	c #FFD1AF",
"V 	c #323131",
"W 	c #E7E7E7",
"X 	c #F5F5F5",
"Y 	c #4B3D34",
"Z 	c #FFDDB8",
"` 	c #FFD2AF",
" .	c #E2B597",
"..	c #D0A588",
"+.	c #FFD4B1",
"@.	c #B38F76",
"#.	c #FFD2AE",
"$.	c #FFDCB7",
"%.	c #4E3F35",
"&.	c #F3F3F3",
"*.	c #7F7F7F",
"=.	c #C2C6C8",
"-.	c #99765F",
";.	c #FFCDAA",
">.	c #C9A186",
",.	c #454B4F",
"'.	c #A1806A",
").	c #FFD5B1",
"!.	c #020100",
"~.	c #2F3235",
"{.	c #4F4641",
"].	c #FFD3AF",
"^.	c #A27E66",
"/.	c #BEC1C3",
"(.	c #929292",
"_.	c #7F8283",
":.	c #DAAD8E",
"<.	c #FAC8A6",
"[.	c #FFD7B3",
"}.	c #806756",
"|.	c #DBDDDF",
"1.	c #6A5649",
"2.	c #F5C4A3",
"3.	c #969696",
"4.	c #626261",
"5.	c #FAC6A3",
"6.	c #FAC8A7",
"7.	c #E4B697",
"8.	c #363839",
"9.	c #BFBFBF",
"0.	c #EBEBEB",
"a.	c #BDBDBD",
"b.	c #555555",
"c.	c #3D3D3D",
"d.	c #F6F6F6",
"e.	c #A5A4A4",
"f.	c #141312",
"g.	c #F5C4A4",
"h.	c #FCC9A8",
"i.	c #FFD0AD",
"j.	c #42352C",
"k.	c #251B14",
"l.	c #927561",
"m.	c #1A130E",
"n.	c #A6836C",
"o.	c #FCCAA8",
"p.	c #FBC9A8",
"q.	c #060402",
"r.	c #030303",
"s.	c #0F0B09",
"t.	c #FFCDAB",
"u.	c #FDCAA8",
"v.	c #FFD6B3",
"w.	c #FECCA9",
"x.	c #FFD3B0",
"y.	c #181310",
"z.	c #14100E",
"A.	c #FFCBA9",
"B.	c #FFCCA9",
"C.	c #FECBAA",
"D.	c #FFCBAA",
"E.	c #FFDBB7",
"F.	c #201915",
"G.	c #120F0C",
"H.	c #FECCAA",
"I.	c #221B16",
"J.	c #080605",
"K.	c #F9C7A6",
"L.	c #1D1713",
"M.	c #E5B798",
"N.	c #100D0B",
"O.	c #6B5547",
"P.	c #C8A085",
"Q.	c #DAAE91",
"R.	c #D1A78B",
"S.	c #715A4B",
"T.	c #E1B496",
"U.	c #FBC9A7",
"V.	c #FFD5B2",
"W.	c #846A58",
"X.	c #B39077",
"Y.	c #1B1511",
"Z.	c #6A5546",
"`.	c #3D3129",
" +	c #362B24",
".+	c #FFDFBA",
"++	c #665144",
"@+	c #604D40",
"#+	c #B38F77",
"$+	c #5E4B3E",
"%+	c #FFDFB9",
"&+	c #E9BB9B",
"*+	c #D9AE91",
"=+	c #FFCEAB",
"-+	c #FFDAB6",
";+	c #BB967C",
">+	c #2C231D",
",+	c #F3C2A2",
"'+	c #FFD9B4",
")+	c #59473B",
"!+	c #3A2F27",
"~+	c #8B6F5C",
"{+	c #B9937B",
"]+	c #BA947C",
"^+	c #8F725F",
"                                                                ",
"                                                                ",
"                            . . .                               ",
"                    . . . + @ # $ % . . . & .                   ",
"                . * = - ; > , , , ' ) ! ~ , { .                 ",
"                . ] ^ , , , ^ ^ ^ , , , , / , ( _               ",
"              . : , ^ ^ , ^ ^ ^ , ^ ^ ^ , , ^ , <               ",
"              . [ } , ^ ^ , , ^ ^ ^ ^ , , , ^ , | .             ",
"              . ^ [ , ^ ^ , , ^ , ^ ^ , , , , , 1 .             ",
"              . 2 , [ , ^ , ^ , 3 , , , ^ ^ / [ 4               ",
"            . . 5 6 7 8 , , , 9 0 a b c , , , d . . .           ",
"          . e f , g h i j k l m n o p q r s t u , v w .         ",
"        . x , ^ y z A B C D E F G H H I F n J K , / , L M .     ",
"      . N , ^ , O P Q R S P R R R R H T H Q U V , ^ ^ , , * .   ",
"    . W , ^ [ X Y Z R `  ...+.R R R S @.#.H $.%.&.} , ^ , , .   ",
"  . *., ^ ^ } =.-.;.T >.. ,.'.P H ).!.~.{.].R ^./., , , , , (.. ",
"  . , , ^ , , _.:.<.[.}.. |.1.` ;.2.. 3.4.5.6.7.8.9.0./ ] a.b.. ",
"  c., , , d.e.f.g.h.H i.j.k.C H R A l.m.n.+.o.p.q.. . . . . .   ",
"  . 5 * r.. . s.t.u.R H v.[.t.R w.R x.[.` R R ).y.              ",
"              z.` Q A.H B.C.C.R H R R D.R D.R E.F.              ",
"              G.i.u.H H H H H H.H.C.H H H H H Z I.              ",
"              J.K.o.B.w.w.C.C.R H.C.R H B.B.R F L.              ",
"              . M.<.R R R t.h.H H H u.).R R u.t.N.              ",
"              . O.).H H.i.P.Q.` R T R.S.A R <.T..               ",
"                . Q U.H V.W.. X.T >.Y.Z.B R Z `..               ",
"                .  +.+u.R T x.++.+@+$.).u.A #+.                 ",
"                  . $+%+t.R R &+T *+=+H -+;+.                   ",
"                    . >+,+'+B T #.B F =+)+.                     ",
"                      . . !+~+{+]+^+j.. .                       ",
"                            . . . .                             ",
"                                                                ",
"                                                                "};
